<?xml version="1.0" encoding="iso-8859-1"?>
<!-- Generator: Adobe Illustrator 19.0.0, SVG Export Plug-In . SVG Version: 6.00 Build 0)  -->
<svg version="1.1" id="Layer_1" xmlns="http://www.w3.org/2000/svg" xmlns:xlink="http://www.w3.org/1999/xlink" x="0px" y="0px"
	 viewBox="0 0 512.002 512.002" style="enable-background:new 0 0 512.002 512.002;" xml:space="preserve">
<circle style="fill:#FFC536;" cx="255.997" cy="255.996" r="255.996"/>
<path style="fill:#FF8736;" d="M512.001,256.001c0-25.205-3.66-49.55-10.447-72.556l-82.379-82.379
	c-0.761-1.068-1.556-2.094-2.406-3.05c-0.016-0.018-0.031-0.036-0.047-0.053c-0.423-0.473-0.853-0.937-1.298-1.382
	c-0.444-0.444-0.909-0.874-1.381-1.297c-0.02-0.018-0.041-0.036-0.061-0.053c-18.414-16.382-57.927-16.137-101.192,6.801v-0.004
	c-0.07,0.038-0.141,0.078-0.211,0.116c-1.426,0.759-2.856,1.541-4.289,2.349c-0.136,0.076-0.273,0.155-0.409,0.232
	c-1.383,0.784-2.769,1.587-4.158,2.418c-0.106,0.063-0.21,0.12-0.316,0.184v0.007c-22.113,13.27-44.862,32.461-66.005,58.357v-0.006
	c-0.101,0.123-0.201,0.251-0.302,0.374c-0.588,0.722-1.174,1.452-1.76,2.186c-0.149,0.187-0.299,0.373-0.448,0.561
	c-0.665,0.836-1.327,1.679-1.988,2.529c-0.116,0.149-0.233,0.298-0.349,0.447c-0.698,0.9-1.393,1.808-2.087,2.723
	c-0.065,0.085-0.129,0.169-0.193,0.255c-30.643,40.502-57.22,95.822-72.502,168.491l-70.217,70.217l84.394,84.4
	c26.33,9.149,54.606,14.135,84.051,14.135C397.386,512,512.001,397.385,512.001,256.001z"/>
<path style="fill:#FF473E;" d="M415.424,96.579c-42.399-42.399-214.826,14.43-260.364,260.359l0.059-0.059l-0.053,0.064
	C400.994,311.405,457.824,138.979,415.424,96.579z"/>
<path style="fill:#D13434;" d="M415.427,96.583l-260.36,260.36C400.987,311.405,457.82,138.988,415.427,96.583z"/>
<path style="fill:#9C6BE8;" d="M305.652,206.351V106.003c-22.852,13.329-46.469,32.977-68.359,59.816v108.889L305.652,206.351z"/>
<path style="fill:#885BC9;" d="M305.655,206.354h100.347c-13.329,22.852-32.977,46.469-59.816,68.359H237.297L305.655,206.354z"/>
<path style="fill:#FFFFFF;" d="M323.773,199.211h86.203c-1.64,3.103-3.406,6.238-5.287,9.373H314.39l-66.005,66.016h97.937
	c-3.877,3.166-7.91,6.301-12.089,9.383h-95.231l-70.268,70.268l-70.206,70.195l-10.971-10.982L228.02,273.001v-95.22
	c3.082-4.19,6.217-8.213,9.383-12.1v97.937l66.005-66.005v-90.288c3.145-1.881,6.269-3.647,9.383-5.298v86.203l96.516-96.516
	c2.257,1.431,4.305,3.062,6.113,4.869c1.808,1.808,3.438,3.856,4.869,6.113L323.773,199.211z"/>
<path style="fill:#E4E4E4;" d="M248.384,274.598l66.005-66.016h90.299c1.881-3.135,3.647-6.269,5.287-9.373h-86.203l96.516-96.516
	c-1.43-2.255-3.059-4.302-4.865-6.108L93.048,418.962l5.478,5.485l70.206-70.195L239,283.982h95.231
	c4.18-3.082,8.213-6.217,12.089-9.383h-97.936V274.598z"/>
<g>
</g>
<g>
</g>
<g>
</g>
<g>
</g>
<g>
</g>
<g>
</g>
<g>
</g>
<g>
</g>
<g>
</g>
<g>
</g>
<g>
</g>
<g>
</g>
<g>
</g>
<g>
</g>
<g>
</g>
</svg>
